<?xml version="1.0" encoding="utf-8"?>
<!-- Generator: Adobe Illustrator 24.0.1, SVG Export Plug-In . SVG Version: 6.00 Build 0)  -->
<svg version="1.1" id="logo" xmlns="http://www.w3.org/2000/svg" xmlns:xlink="http://www.w3.org/1999/xlink" x="0px" y="0px"
	 viewBox="0 0 324.9 151.4" style="enable-background:new 0 0 324.9 151.4;" xml:space="preserve">
<style type="text/css">
	.st0{fill:#022C56;}
	.st1{fill:url(#SVGID_1_);}
	.st2{opacity:0.15;}
	.st3{fill:#FFFFFF;}
	.st4{opacity:0.32;}
	.st5{clip-path:url(#SVGID_3_);fill:url(#SVGID_4_);}
	.st6{fill:url(#SVGID_5_);}
	.st7{fill:url(#SVGID_6_);}
	.st8{clip-path:url(#SVGID_8_);fill:url(#SVGID_9_);}
</style>
<g>
	<g>
		<path class="st0" d="M81,57.8c0-3.5-0.5-6.2-1.5-7.9c-1-1.7-2.9-2.6-5.8-2.6h-1v-3.1h43.6c5.9,0,8.9,2.8,8.9,8.3v8.9H122
			c0-4.4-1.1-7.6-3.3-9.5s-5.4-3-9.7-3H94.5v26.6h22.9v4.7H94.5V113H81V57.8z"/>
		<path class="st0" d="M138,110.7c-3.6-2.2-6.4-5.3-8.4-9.1c-2-3.9-3-8.2-3-13.1c0-5.4,1-10,3-13.9c2-3.8,4.7-6.7,8.2-8.7
			c3.5-2,7.4-3,11.8-3c4.3,0,8.2,0.9,11.7,2.6c3.5,1.7,6.2,4.2,8.2,7.3c2,3.2,3,6.8,3,10.9l-0.4,6.6h-31.4c0,6.6,1,11.4,3,14.4
			c2,3,4.8,4.5,8.4,4.5c3.3,0,6.1-0.7,8.4-2.2c2.3-1.5,4.4-3.6,6.5-6.4l3.2,2.4c-2,3.1-4.5,5.7-7.6,7.8c-3,2.1-7.1,3.1-12.1,3.1
			C145.8,114.1,141.6,113,138,110.7z M158.4,85.7c0-6.5-0.8-11.2-2.3-13.9c-1.5-2.7-3.7-4.1-6.6-4.1c-2.6,0-4.8,1.4-6.4,4.2
			c-1.6,2.8-2.4,7.4-2.4,13.8H158.4z"/>
		<path class="st0" d="M188.2,110.2c-2.6-2.6-4-6.4-4-11.3V68.8H178v-4.7h6.3v-9.4l5.2-6.2h8.3v15.6h11.5v4.7h-11.5v30.7
			c0,3.8,0.5,6.3,1.4,7.8c0.9,1.4,2.3,2.1,4.1,2.1c2.8,0,5.6-0.9,8.2-2.8l1.5,2.9c-3.5,3.1-8,4.6-13.5,4.6
			C194.5,114.1,190.8,112.8,188.2,110.2z"/>
		<path class="st0" d="M227.8,110.6c-3.8-2.3-6.6-5.4-8.5-9.2c-1.9-3.9-2.9-8.1-2.9-12.9c0-4.7,1-9,2.9-12.9
			c1.9-3.9,4.7-6.9,8.5-9.2c3.7-2.3,8.3-3.4,13.6-3.4c8.3,0,13.7,1.2,16.1,3.6c1.2,1.2,1.9,2.7,2.2,4.7c0.3,1.9,0.4,5.2,0.4,9.9H257
			c-0.3-4.4-1.6-7.7-4.1-10.1c-2.4-2.3-5.8-3.5-10-3.5c-3.8,0-6.9,1.8-9.1,5.3c-2.3,3.5-3.4,8.7-3.4,15.6c0,13.9,4.3,20.8,13,20.8
			c3.3,0,6.1-0.7,8.4-2.2c2.3-1.5,4.4-3.6,6.5-6.4l3.2,2.4c-2,3.1-4.5,5.7-7.6,7.8c-3.1,2.1-7.3,3.1-12.6,3.1
			C236.1,114.1,231.5,112.9,227.8,110.6z"/>
		<path class="st0" d="M270.6,57.8c0-3.5-0.5-6.2-1.5-7.9c-1-1.7-2.9-2.6-5.8-2.6h-1v-3.1h12.5c2.5,0,4.4,0.4,5.7,1.3
			c1.3,0.8,2.3,2.2,2.8,4.1c0.6,1.9,0.8,4.6,0.8,8.2V67c1.3-1,3-2,5.1-2.8c2.1-0.8,4.2-1.2,6.4-1.2c5.6,0,10.3,1.4,14.1,4.3
			c3.8,2.9,5.7,7.8,5.7,14.7V113h-13.5V82.6c0-5-0.9-8.6-2.7-10.9c-1.8-2.3-4-3.4-6.7-3.4s-5.5,1.2-8.3,3.6V113h-13.5V57.8z"/>
	</g>
	<g>
		<path class="st0" d="M84.1,142.7c-1.5-0.9-2.6-2.2-3.5-3.7c-0.8-1.6-1.2-3.3-1.2-5.3c0-1.9,0.4-3.7,1.2-5.3c0.8-1.6,2-2.8,3.5-3.7
			c1.5-0.9,3.2-1.4,5.1-1.4c1.9,0,3.6,0.5,5.1,1.4s2.6,2.2,3.4,3.7c0.8,1.6,1.2,3.3,1.2,5.3c0,1.9-0.4,3.7-1.2,5.3
			c-0.8,1.6-2,2.8-3.4,3.7s-3.2,1.4-5.1,1.4C87.3,144,85.6,143.6,84.1,142.7z M93.4,140.3c1-1.6,1.5-3.8,1.5-6.7s-0.5-5.1-1.5-6.7
			c-1-1.6-2.4-2.4-4.2-2.4s-3.2,0.8-4.2,2.4c-1,1.6-1.5,3.8-1.5,6.7s0.5,5.1,1.5,6.7c1,1.6,2.4,2.4,4.2,2.4S92.4,141.9,93.4,140.3z"
			/>
		<path class="st0" d="M119.4,142.7c-0.9-0.7-1.8-1.8-2.8-3.3l-3-4.9h-1.2v8.9h-3.9v-15.7c0-1-0.1-1.8-0.4-2.2
			c-0.3-0.5-0.8-0.7-1.7-0.7h-0.3v-0.9h8.2c2,0,3.8,0.4,5.5,1.1s2.5,2.2,2.5,4.2c0,1.4-0.4,2.5-1.3,3.3c-0.9,0.8-2,1.3-3.5,1.7
			l3.1,5.2c1.2,2,2.4,3,3.7,3.3v0.7c-0.2,0.1-0.4,0.1-0.9,0.2c-0.4,0.1-0.8,0.1-1.2,0.1C121.3,143.7,120.3,143.4,119.4,142.7z
			 M114.3,133.3c1.1,0,2-0.3,2.8-1c0.8-0.7,1.2-1.7,1.2-3.1s-0.4-2.5-1.2-3.1c-0.8-0.7-1.7-1-2.8-1c-0.5,0-1.1,0.1-1.8,0.2v8H114.3z
			"/>
		<path class="st0" d="M145.2,142.8c-1-0.5-1.8-1.5-2.5-3.1l-0.7-1.7h-7.9l-2.4,5.4h-1.5l8.7-19.5h1.3l6.6,15.8
			c0.8,1.8,1.8,2.8,3.1,3v0.7c-0.4,0.1-0.8,0.1-1.4,0.1C147.3,143.5,146.2,143.3,145.2,142.8z M141.5,136.7l-3.3-7.7l-3.4,7.7H141.5
			z"/>
		<path class="st0" d="M160.2,142.7c-1.5-0.9-2.6-2.1-3.4-3.6s-1.2-3.2-1.2-5.2c0-2,0.4-3.8,1.3-5.4c0.8-1.6,2-2.9,3.5-3.8
			c1.5-0.9,3.2-1.4,5-1.4c1.7,0,3.2,0.2,4.4,0.7c1.2,0.4,2.1,1,2.7,1.7c0.4,0.5,0.6,1,0.7,1.7c0.1,0.7,0.1,1.6,0.1,2.8h-0.9
			c-0.4-1.8-1.1-3.2-2.1-4.1s-2.3-1.4-3.9-1.4c-2,0-3.6,0.7-4.8,2.1s-1.7,3.8-1.7,7.2c0,2.5,0.5,4.6,1.6,6.2
			c1.1,1.7,2.7,2.5,4.9,2.5c1.4,0,2.7-0.4,3.8-1.1c1.2-0.7,2.1-1.8,2.8-3.1l1,0.8c-0.9,1.7-2.1,2.9-3.4,3.6s-3,1.1-5.1,1.1
			C163.4,144,161.6,143.6,160.2,142.7z"/>
		<path class="st0" d="M183.4,127.7c0-1-0.1-1.8-0.4-2.2c-0.3-0.5-0.8-0.7-1.7-0.7H181v-0.9h3.6c0.7,0,1.3,0.1,1.6,0.4
			c0.4,0.2,0.6,0.6,0.8,1.2s0.2,1.3,0.2,2.3v14.4h10.2v1.3h-14.1V127.7z"/>
		<path class="st0" d="M205.7,127.7c0-1-0.1-1.8-0.4-2.2c-0.3-0.5-0.8-0.7-1.7-0.7h-0.3v-0.9h13.1c1.7,0,2.5,0.8,2.5,2.4v2.5H218
			c0-1.2-0.3-2.1-0.9-2.7s-1.5-0.9-2.8-0.9h-4.8v7.4h7.7v1.3h-7.7v8.1h5.1c1.1,0,2.1-0.3,2.8-0.8c0.8-0.5,1.4-1.4,1.9-2.6l0.8,0.3
			l-0.9,2.3c-0.3,0.7-0.6,1.2-0.9,1.6c-0.4,0.3-0.9,0.5-1.7,0.5h-11V127.7z"/>
		<path class="st0" d="M228.6,143.4c-0.3-0.3-0.5-0.8-0.5-1.3s0.2-1,0.5-1.3c0.3-0.3,0.8-0.5,1.3-0.5s1,0.2,1.3,0.5
			c0.3,0.3,0.5,0.8,0.5,1.3s-0.2,1-0.5,1.3c-0.3,0.3-0.8,0.5-1.3,0.5S228.9,143.7,228.6,143.4z"/>
		<path class="st0" d="M244.2,142.7c-1.5-0.9-2.6-2.1-3.4-3.6c-0.8-1.5-1.2-3.2-1.2-5.2c0-2,0.4-3.8,1.3-5.4c0.8-1.6,2-2.9,3.5-3.8
			s3.2-1.4,5-1.4c1.7,0,3.2,0.2,4.4,0.7c1.2,0.4,2.1,1,2.7,1.7c0.4,0.5,0.6,1,0.7,1.7c0.1,0.7,0.1,1.6,0.1,2.8h-0.9
			c-0.4-1.8-1.1-3.2-2.1-4.1s-2.3-1.4-3.9-1.4c-2,0-3.6,0.7-4.8,2.1s-1.7,3.8-1.7,7.2c0,2.5,0.5,4.6,1.6,6.2
			c1.1,1.7,2.7,2.5,4.9,2.5c1.4,0,2.7-0.4,3.8-1.1c1.2-0.7,2.1-1.8,2.8-3.1l1,0.8c-0.9,1.7-2.1,2.9-3.4,3.6s-3,1.1-5.1,1.1
			C247.4,144,245.6,143.6,244.2,142.7z"/>
		<path class="st0" d="M270.3,142.7c-1.5-0.9-2.6-2.2-3.5-3.7c-0.8-1.6-1.2-3.3-1.2-5.3c0-1.9,0.4-3.7,1.2-5.3
			c0.8-1.6,2-2.8,3.5-3.7c1.5-0.9,3.2-1.4,5.1-1.4c1.9,0,3.6,0.5,5.1,1.4s2.6,2.2,3.4,3.7c0.8,1.6,1.2,3.3,1.2,5.3
			c0,1.9-0.4,3.7-1.2,5.3c-0.8,1.6-2,2.8-3.4,3.7s-3.2,1.4-5.1,1.4C273.5,144,271.8,143.6,270.3,142.7z M279.6,140.3
			c1-1.6,1.5-3.8,1.5-6.7s-0.5-5.1-1.5-6.7s-2.4-2.4-4.2-2.4c-1.8,0-3.2,0.8-4.2,2.4s-1.5,3.8-1.5,6.7s0.5,5.1,1.5,6.7
			c1,1.6,2.4,2.4,4.2,2.4C277.2,142.7,278.6,141.9,279.6,140.3z"/>
		<path class="st0" d="M312.7,143.3c-0.9-1-1.4-2.6-1.4-4.9v-10.5l-6.5,15.5h-1l-7.9-16.1v16.1h-1.5v-19.5h3.6l7.2,14.5l6.1-14.5
			h3.9v14.5c0,1.9,0.2,3.2,0.5,4.1c0.3,0.9,0.9,1.4,1.7,1.5v0.7C315.1,144.8,313.6,144.3,312.7,143.3z"/>
	</g>
	<g>
		<g>
			<linearGradient id="SVGID_1_" gradientUnits="userSpaceOnUse" x1="6.6745" y1="66.8155" x2="126.8953" y2="66.8155">
				<stop  offset="0" style="stop-color:#2B83FE"/>
				<stop  offset="0.5038" style="stop-color:#12C0FE"/>
				<stop  offset="1" style="stop-color:#02F7A3"/>
			</linearGradient>
			<path class="st1" d="M39.3,49c-4.9,26.2,5.8,79.5,5.8,79.5L7.2,22.6c-1.3-4.6,0-9.6,3.3-13.1c3.3-3.5,8.2-5,12.9-4l30.8,6.7
				L126.9,28c0,0-74.8-7.1-84.9,12.5C40.8,42.8,39.9,45.7,39.3,49z"/>
			<g class="st2">
				<path class="st3" d="M20.4,9.5c0.7,0,1.3,0.1,2,0.2l30.8,6.7l30,6.5c-25.5,1.3-40.3,6.5-45,15.7c-1.3,2.6-2.3,5.8-3.1,9.6
					c-2,10.5-1.6,25.1-0.3,39L11.2,21.3c-0.8-3.1,0.1-6.5,2.3-8.9C15.3,10.5,17.8,9.5,20.4,9.5 M20.4,5.2c-3.7,0-7.3,1.5-10,4.3
					C7.1,13,5.9,17.9,7.2,22.6l37.9,105.9c0,0-10.7-53.3-5.8-79.5c0.6-3.3,1.5-6.2,2.7-8.4c5.9-11.4,33.6-13.7,55.8-13.7
					c16,0,29.2,1.2,29.2,1.2L54.1,12.2L23.3,5.5C22.3,5.3,21.4,5.2,20.4,5.2L20.4,5.2z"/>
			</g>
			<g class="st4">
				<defs>
					<path id="SVGID_2_" class="st4" d="M39.3,49c-4.9,26.2,5.8,79.5,5.8,79.5L7.2,22.6c-1.3-4.6,0-9.6,3.3-13.1
						c3.3-3.5,8.2-5,12.9-4l30.8,6.7L126.9,28c0,0-74.8-7.1-84.9,12.5C40.8,42.8,39.9,45.7,39.3,49z"/>
				</defs>
				<clipPath id="SVGID_3_">
					<use xlink:href="#SVGID_2_"  style="overflow:visible;"/>
				</clipPath>
				
					<radialGradient id="SVGID_4_" cx="-200.1113" cy="215.1695" r="51.9739" gradientTransform="matrix(0.3214 0.5007 -0.9413 0.6042 287.7964 0.163)" gradientUnits="userSpaceOnUse">
					<stop  offset="0" style="stop-color:#231F20"/>
					<stop  offset="1" style="stop-color:#231F20;stop-opacity:0"/>
				</radialGradient>
				<path class="st5" d="M37.7,56C64.7,38.7,79.1,13,69.9-1.4S31.3-13.4,4.2,4S-37.2,47-28,61.4S10.6,73.4,37.7,56z"/>
			</g>
			<linearGradient id="SVGID_5_" gradientUnits="userSpaceOnUse" x1="32.9424" y1="8.5008" x2="31.7848" y2="115.9468">
				<stop  offset="0" style="stop-color:#02F7A3"/>
				<stop  offset="0.4962" style="stop-color:#12C0FE"/>
				<stop  offset="1" style="stop-color:#2B83FE"/>
			</linearGradient>
			<path class="st6" d="M45.1,128.4L7.2,22.6c-1.3-4.6,0-9.6,3.3-13.1c3.3-3.5,8.2-5,12.9-4L59,13.3C40.4,27,39.3,48.9,39.3,48.9
				s0,0,0,0C34.3,75.1,45.1,128.4,45.1,128.4z"/>
			<g class="st2">
				<path class="st3" d="M20.4,9.5L20.4,9.5c0.7,0,1.3,0.1,2,0.2l27.5,6C36.9,29.2,35.2,46,35.1,48.5c-1.9,10.5-1.5,24.9-0.3,38.7
					L11.2,21.3c-0.8-3.1,0.1-6.5,2.3-8.9C15.3,10.5,17.8,9.5,20.4,9.5 M20.4,5.2c-3.7,0-7.3,1.5-10,4.3C7.1,13,5.9,17.9,7.2,22.6
					l37.9,105.9c0,0-10.7-53.3-5.8-79.5c0,0,0,0,0,0S40.4,27,59,13.3L23.3,5.5C22.3,5.3,21.4,5.2,20.4,5.2L20.4,5.2z"/>
			</g>
		</g>
		<g>
			
				<linearGradient id="SVGID_6_" gradientUnits="userSpaceOnUse" x1="-5.4645" y1="115.8751" x2="27.1145" y2="115.8751" gradientTransform="matrix(0.9979 6.435248e-02 -6.435248e-02 0.9979 55.8413 -37.4668)">
				<stop  offset="0" style="stop-color:#2B83FE"/>
				<stop  offset="0.5038" style="stop-color:#12C0FE"/>
				<stop  offset="1" style="stop-color:#02F7A3"/>
			</linearGradient>
			<path class="st7" d="M50.5,72.9c-3.4,7.5-4.6,22-4.6,22L43.6,67c0-1.2,0.7-2.7,1.9-3.8c1.2-1.1,2.7-1.8,3.9-1.7l8.1,0.5l19,1.1
				c0,0-20.3,1.4-24.6,7.3C51.4,71.1,50.9,72,50.5,72.9z"/>
			<g class="st4">
				<defs>
					<path id="SVGID_7_" class="st4" d="M50.5,72.9c-3.4,7.5-4.6,22-4.6,22L43.6,67c0-1.2,0.7-2.7,1.9-3.8c1.2-1.1,2.7-1.8,3.9-1.7
						l8.1,0.5l19,1.1c0,0-20.3,1.4-24.6,7.3C51.4,71.1,50.9,72,50.5,72.9z"/>
				</defs>
				<clipPath id="SVGID_8_">
					<use xlink:href="#SVGID_7_"  style="overflow:visible;"/>
				</clipPath>
				
					<radialGradient id="SVGID_9_" cx="-1473.9365" cy="525.9825" r="51.9739" gradientTransform="matrix(5.042702e-02 0.1255 -0.309 0.2116 283.7462 142.19)" gradientUnits="userSpaceOnUse">
					<stop  offset="0" style="stop-color:#231F20"/>
					<stop  offset="1" style="stop-color:#231F20;stop-opacity:0"/>
				</radialGradient>
				<path class="st8" d="M49.5,75c8.9-6.1,14.9-13.9,13.4-17.5s-9.8-1.6-18.7,4.5S29.4,75.8,30.8,79.4C32.3,83,40.6,81,49.5,75z"/>
			</g>
		</g>
	</g>
</g>
</svg>
